HIERARCHY
ROOT Hips
{
  OFFSET 53.0784 93.7608 8.36889
  CHANNELS 6 Xposition Yposition Zposition Zrotation Xrotation Yrotation
  JOINT spine
  {
    OFFSET 0 7.4756 0.429885
    CHANNELS 3 Zrotation Xrotation Yrotation
    JOINT spine1
    {
      OFFSET 0 9.92301 0
      CHANNELS 3 Zrotation Xrotation Yrotation
      JOINT spine2
      {
        OFFSET 0 9.50804 0
        CHANNELS 3 Zrotation Xrotation Yrotation
        JOINT Neck
        {
          OFFSET 0 24.4111 1.16384
          CHANNELS 3 Zrotation Xrotation Yrotation
          JOINT Head
          {
            OFFSET 0 7.37523 0
            CHANNELS 3 Zrotation Xrotation Yrotation
            End Site
            {
              OFFSET 0 17.8522 -5.88741
            }
          }
        }
        JOINT RightShoulder
        {
          OFFSET -4.00356 10.2679 -0.557468
          CHANNELS 3 Zrotation Xrotation Yrotation
          JOINT RightArm
          {
            OFFSET 0 13.4673 0
            CHANNELS 3 Zrotation Xrotation Yrotation
            JOINT RightArmRoll
            {
              OFFSET 0 6.79858 0
              CHANNELS 3 Zrotation Xrotation Yrotation
              JOINT RightForeArm
              {
                OFFSET 0 19.8018 0
                CHANNELS 3 Zrotation Xrotation Yrotation
                JOINT RightForeArmRoll
                {
                  OFFSET 0 7.62905 0
                  CHANNELS 3 Zrotation Xrotation Yrotation
                  JOINT RightHand
                  {
                    OFFSET 0 15.3098 0
                    CHANNELS 3 Zrotation Xrotation Yrotation
                    End Site
                    {
                      OFFSET 0 0 0
                    }
                  }
                }
              }
            }
          }
        }
        JOINT LeftShoulder
        {
          OFFSET 4.00356 10.2679 -0.557468
          CHANNELS 3 Zrotation Xrotation Yrotation
          JOINT LeftArm
          {
            OFFSET 0 13.4673 0
            CHANNELS 3 Zrotation Xrotation Yrotation
            JOINT LeftArmRoll
            {
              OFFSET 0 6.79858 0
              CHANNELS 3 Zrotation Xrotation Yrotation
              JOINT LeftForeArm
              {
                OFFSET 0 19.8018 0
                CHANNELS 3 Zrotation Xrotation Yrotation
                JOINT LeftForeArmRoll
                {
                  OFFSET 0 7.62906 0
                  CHANNELS 3 Zrotation Xrotation Yrotation
                  JOINT LeftHand
                  {
                    OFFSET 0 15.3098 0
                    CHANNELS 3 Zrotation Xrotation Yrotation
                    End Site
                    {
                      OFFSET 0 0 0
                    }
                  }
                }
              }
            }
          }
        }
      }
    }
  }
  JOINT RightUpLeg
  {
    OFFSET -6.62609 -1.21505 -1.01927
    CHANNELS 3 Zrotation Xrotation Yrotation
    JOINT RightUpLegRoll
    {
      OFFSET 0 17.9517 0
      CHANNELS 3 Zrotation Xrotation Yrotation
      JOINT RightLeg
      {
        OFFSET 0 -22.2304 0
        CHANNELS 3 Zrotation Xrotation Yrotation
        JOINT RightLegRoll
        {
          OFFSET 0 22.3032 0
          CHANNELS 3 Zrotation Xrotation Yrotation
          JOINT RightFoot
          {
            OFFSET 0 18.5636 0
            CHANNELS 3 Zrotation Xrotation Yrotation
            JOINT RightToeBase
            {
              OFFSET 0 15.5183 0
              CHANNELS 3 Zrotation Xrotation Yrotation
              End Site
              {
                OFFSET 0.00657761 7.51538 -0.866263
              }
            }
          }
        }
      }
    }
  }
  JOINT LeftUpLeg
  {
    OFFSET 6.62609 -1.21505 -1.01927
    CHANNELS 3 Zrotation Xrotation Yrotation
    JOINT LeftUpLegRoll
    {
      OFFSET 0 17.9518 0
      CHANNELS 3 Zrotation Xrotation Yrotation
      JOINT LeftLeg
      {
        OFFSET 0 22.2303 0
        CHANNELS 3 Zrotation Xrotation Yrotation
        JOINT LeftLegRoll
        {
          OFFSET 0 22.5093 0
          CHANNELS 3 Zrotation Xrotation Yrotation
          JOINT LeftFoot
          {
            OFFSET 0 18.3575 0
            CHANNELS 3 Zrotation Xrotation Yrotation
            JOINT LeftToeBase
            {
              OFFSET 0 15.5183 0
              CHANNELS 3 Zrotation Xrotation Yrotation
              End Site
              {
                OFFSET -0.029478 7.51539 -0.866263
              }
            }
          }
        }
      }
    }
  }
}
MOTION
Frames: 6
Frame Time: 0.00208333
51.954 93.6964 6.46654 -0.789091 -0.776703 -2.07566 -0.0153073 -1.7274 0.0865553 -0.0222265 0.549365 0.176029 -0.0243856 2.19443 0.175267 3.56852 -1.77296 -2.81275 -1.26077 5.80204 -2.42076 17.6729 -17.4177 -15.8765 -18.5382 28.6515 100.185 -1.80596e-006 -1.09954e-005 -1.00457e-005 4.29955 56.292 -2.90993 3.00237e-005 -6.36163e-007 -3.00941 8.02998 -4.9514 0.697648 -72.3122 -2.17471 2.59753 -100.216 12.5754 -14.7672 3.14527e-009 4.66438e-007 3.36955e-006 -8.11722 2.04669 0.858648 -7.34113e-006 -5.79623e-007 3.00745 -8.02977 -4.95142 -0.697679 -177.489 3.37941 -2.68331 180 7.01568e-015 179.017 177.737 7.99451 179.774 -7.80079e-007 -1.62304e-006 0.124018 -19.4022 69.0114 20.4169 8.13649 25.2327 -3.48774 -178.016 2.74639 2.86486 4.54188e-006 -4.6773e-006 -0.969214 -1.9908 -5.8054 0.0558353 -6.3847e-007 2.66958e-006 -0.0634641 18.7416 68.188 -19.6871 -8.13649 25.2327 3.48774 
51.9554 93.6942 6.46403 -0.797215 -0.781527 -2.06782 -0.0153604 -1.72783 0.0862784 -0.0222062 0.548143 0.173755 -0.024331 2.19321 0.172642 3.60009 -1.74151 -2.82075 -1.26409 5.77447 -2.42373 17.68 -17.4114 -15.8669 -18.5394 28.6977 100.167 -1.80596e-006 -1.09954e-005 -1.00457e-005 4.2828 56.2458 -2.90255 3.00237e-005 -6.36163e-007 -3.00941 8.02998 -4.9514 0.697648 -72.2998 -2.17095 2.59467 -100.222 12.5885 -14.6977 3.14527e-009 4.66438e-007 3.36955e-006 -8.16937 2.07403 0.860423 -7.34113e-006 -5.79623e-007 3.00745 -8.02977 -4.95142 -0.697679 -177.481 3.36955 -2.68607 180 7.01568e-015 179.017 177.735 7.98727 179.774 -7.80079e-007 -1.62304e-006 0.123746 -19.3999 69.0091 20.4144 8.13649 25.2327 -3.48774 -178.008 2.75167 2.86088 4.54188e-006 -4.6773e-006 -0.969416 -1.98905 -5.82319 0.0563955 -6.3847e-007 2.66958e-006 -0.0640868 18.744 68.1911 -19.6899 -8.13649 25.2327 3.48774 
51.9738 93.6935 6.45502 -0.805073 -0.786188 -2.05945 -0.0154711 -1.72831 0.086022 -0.0223245 0.546812 0.17149 -0.0244147 2.19188 0.17002 3.63134 -1.70876 -2.82945 -1.26632 5.7446 -2.42738 17.6884 -17.4048 -15.8565 -18.5358 28.743 100.148 -1.80596e-006 -1.09954e-005 -1.00457e-005 4.26292 56.1929 -2.89319 3.00237e-005 -6.36163e-007 -3.0094 8.02998 -4.9514 0.697648 -72.2879 -2.16726 2.59188 -100.227 12.6015 -14.6289 3.14526e-009 4.66438e-007 3.36955e-006 -8.22126 2.10195 0.862251 -7.34113e-006 -5.79623e-007 3.00745 -8.02977 -4.95142 -0.697679 -177.474 3.35993 -2.68856 180 7.01568e-015 179.017 177.734 7.98022 179.775 -7.80079e-007 -1.62304e-006 0.123474 -19.3976 69.0069 20.412 8.13649 25.2327 -3.48774 -178.002 2.75704 2.85739 4.54188e-006 -4.6773e-006 -0.969612 -1.98705 -5.8407 0.0569891 -6.3847e-007 2.66958e-006 -0.0647206 18.7465 68.1942 -19.6926 -8.13649 25.2327 3.48774 
51.9695 93.691 6.46369 -0.812697 -0.790683 -2.05068 -0.0156327 -1.72885 0.0857845 -0.0225722 0.545394 0.169263 -0.0246279 2.19046 0.167439 3.66216 -1.67514 -2.83874 -1.26767 5.71307 -2.43161 17.6981 -17.3979 -15.8455 -18.5273 28.7872 100.127 -1.80596e-006 -1.09954e-005 -1.00457e-005 4.24004 56.1335 -2.88195 3.00237e-005 -6.36163e-007 -3.0094 8.02998 -4.9514 0.697648 -72.2764 -2.16366 2.58916 -100.23 12.6144 -14.5608 3.14525e-009 4.66438e-007 3.36955e-006 -8.2728 2.13034 0.864128 -7.34113e-006 -5.79623e-007 3.00745 -8.02977 -4.95142 -0.697679 -177.467 3.35053 -2.69084 180 7.01568e-015 179.017 177.733 7.97336 179.775 -7.80079e-007 -1.62304e-006 0.123201 -19.3954 69.0048 20.4097 8.13649 25.2327 -3.48774 -177.995 2.76242 2.85434 4.54188e-006 -4.6773e-006 -0.969804 -1.98481 -5.85783 0.057608 -6.3847e-007 2.66958e-006 -0.0653588 18.7489 68.1973 -19.6954 -8.13649 25.2327 3.48774 
51.977 93.6873 6.42827 -0.820119 -0.795012 -2.04168 -0.0158383 -1.72943 0.0855641 -0.02294 0.543913 0.167105 -0.0249622 2.18898 0.164943 3.69249 -1.64108 -2.84849 -1.26836 5.68051 -2.43634 17.7089 -17.3908 -15.834 -18.5142 28.8305 100.106 -1.80596e-006 -1.09954e-005 -1.00457e-005 4.21431 56.0678 -2.86891 3.00237e-005 -6.36163e-007 -3.00939 8.02998 -4.9514 0.697648 -72.2651 -2.16019 2.58653 -100.233 12.6271 -14.4935 3.14527e-009 4.66438e-007 3.36955e-006 -8.32389 2.15911 0.866052 -7.34113e-006 -5.79623e-007 3.00745 -8.02977 -4.95142 -0.697679 -177.46 3.34131 -2.69297 180 7.01568e-015 179.017 177.731 7.96657 179.775 -7.80079e-007 -1.62304e-006 0.122927 -19.3933 69.0027 20.4075 8.13649 25.2327 -3.48774 -177.99 2.76774 2.85166 4.54188e-006 -4.6773e-006 -0.969995 -1.98238 -5.87451 0.0582438 -6.3847e-007 2.66958e-006 -0.0659951 18.7514 68.2004 -19.6982 -8.13649 25.2327 3.48774 
51.9749 93.6902 6.43754 -0.827373 -0.799173 -2.03256 -0.0160812 -1.73005 0.0853591 -0.023419 0.542393 0.165046 -0.0254089 2.18746 0.162569 3.72222 -1.60701 -2.85858 -1.26863 5.64755 -2.44148 17.721 -17.3836 -15.8222 -18.4965 28.8727 100.084 -1.80596e-006 -1.09954e-005 -1.00457e-005 4.18587 55.9961 -2.85417 3.00237e-005 -6.36163e-007 -3.00939 8.02998 -4.9514 0.697648 -72.254 -2.15686 2.58397 -100.236 12.6396 -14.4271 3.14525e-009 4.66438e-007 3.36955e-006 -8.37444 2.18818 0.86802 -7.34113e-006 -5.79623e-007 3.00745 -8.02977 -4.95142 -0.697679 -177.454 3.33226 -2.69499 180 7.01568e-015 179.017 177.73 7.95982 179.775 -7.80079e-007 -1.62304e-006 0.122652 -19.3912 69.0007 20.4054 8.13649 25.2327 -3.48774 -177.984 2.77293 2.84932 4.54188e-006 -4.6773e-006 -0.970186 -1.97977 -5.89065 0.0588882 -6.3847e-007 2.66958e-006 -0.0666229 18.7539 68.2036 -19.701 -8.13649 25.2327 3.48774 
